<svg width="87" height="103" viewBox="0 0 87 103" fill="none" xmlns="http://www.w3.org/2000/svg">
<path d="M50.2764 0.659058C52.5562 0.659058 54.7028 1.73188 56.0723 3.55457L84.5693 41.4813C85.5129 42.7372 86.0225 44.266 86.0225 45.8368V101C86.0225 101.69 85.4628 102.25 84.7725 102.25H71.6816C70.9914 102.25 70.4316 101.69 70.4316 101V53.9999C70.4316 51.9289 68.7527 50.2499 66.6816 50.2499H19.5908C17.5198 50.2499 15.8409 51.9289 15.8408 53.9999V101C15.8408 101.69 15.2812 102.25 14.5908 102.25H1.5C0.809644 102.25 0.25 101.69 0.25 101V45.8993C0.250097 44.2887 0.78638 42.7239 1.77441 41.452L31.333 3.40808L31.5938 3.09167C32.9397 1.5511 34.8903 0.65917 36.9492 0.659058C40.2604 0.659058 42.2518 4.33134 40.4453 7.10632L29.5977 23.7675L29.5986 23.7684L22.6592 34.91C21.5187 36.7418 22.8362 39.1132 24.9941 39.1132H62.0449C64.2468 39.113 65.5557 36.6546 64.3262 34.828L56.8838 23.7762L56.8809 23.7714L46.2451 7.20496C44.4293 4.37644 46.4601 0.659124 49.8213 0.659058H50.2764Z" fill="white" stroke="black" stroke-width="0.5"/>
<path d="M55.458 61.75C57.1424 61.75 58.5077 63.1154 58.5078 64.7998C58.5078 66.4843 57.1425 67.8496 55.458 67.8496H39.3125C37.2417 67.8497 35.5627 69.5288 35.5625 71.5996V72.2148C35.5627 74.2857 37.2416 75.9647 39.3125 75.9648H48.1162C49.8007 75.9648 51.166 77.3302 51.166 79.0146C51.166 80.6991 49.8006 82.0645 48.1162 82.0645H39.3125C37.2416 82.0646 35.5626 83.7435 35.5625 85.8145V94.9746C35.5625 96.8559 34.0375 98.3809 32.1562 98.3809C30.275 98.3808 28.75 96.8558 28.75 94.9746V66L28.7559 65.7812C28.8697 63.5357 30.7262 61.75 33 61.75H55.458Z" fill="white" stroke="black" stroke-width="0.5"/>
<path d="M20 102C19.4477 102 19 101.552 19 101V56.9819C19 54.2305 21.2305 52 23.9819 52H53.1984C55.1244 52 56.6857 53.5613 56.6857 55.4873V55.4873C56.6857 57.4133 55.1244 58.9746 53.1984 58.9746H31.8442C29.0928 58.9746 26.8623 61.2051 26.8623 63.9565V72.7038V79.6784V101C26.8623 101.552 26.4146 102 25.8623 102H20Z" fill="#0011FF"/>
<path d="M66.8949 102C67.4472 102 67.8949 101.552 67.8949 101V56.9819C67.8949 54.2305 65.6644 52 62.913 52H33.6965C31.7705 52 30.2092 53.5613 30.2092 55.4873V55.4873C30.2092 57.4133 31.7705 58.9746 33.6965 58.9746H55.0507C57.8021 58.9746 60.0326 61.2051 60.0326 63.9565V72.7038V79.6784V101C60.0326 101.552 60.4803 102 61.0326 102H66.8949Z" fill="#0011FF"/>
</svg>
